<?xml version="1.0" standalone="no"?><!DOCTYPE svg PUBLIC "-//W3C//DTD SVG 1.1//EN" "http://www.w3.org/Graphics/SVG/1.1/DTD/svg11.dtd"><svg t="1709102542589" class="icon" viewBox="0 0 1024 1024" version="1.1" xmlns="http://www.w3.org/2000/svg" p-id="3823" id="mx_n_1709102542590" xmlns:xlink="http://www.w3.org/1999/xlink" width="200" height="200"><path d="M645.12 368.64h0.2048c0.22528 0 0.4608 0.02048 0.68608 0.04096L645.12 368.64a10.32192 10.32192 0 0 1 2.7648 0.37888l0.36864 0.11264a8.5504 8.5504 0 0 1 0.73728 0.26624l0.4096 0.17408a8.9088 8.9088 0 0 1 0.8192 0.41984l0.17408 0.1024a10.24 10.24 0 0 1 4.05504 4.56704l0.1024 0.23552a9.58464 9.58464 0 0 1 0.63488 2.07872l0.02048 0.2048a4.41344 4.41344 0 0 1 0.08192 0.512l0.04096 0.48128v0.2048L655.36 378.88v204.8a10.24 10.24 0 0 1-20.40832 1.19808L634.88 583.68V403.58912L386.11968 652.35968a10.24 10.24 0 0 1-15.32928-13.5168l0.84992-0.96256L620.36992 389.12H440.32a10.24 10.24 0 0 1-10.16832-9.04192L430.08 378.88a10.24 10.24 0 0 1 9.04192-10.16832L440.32 368.64h204.8z" fill="#D63939" p-id="3824"></path></svg>